<?xml version="1.0" encoding="UTF-8" standalone="no"?>
<svg width="31px" height="26px" viewBox="0 0 31 26" version="1.1" xmlns="http://www.w3.org/2000/svg" xmlns:xlink="http://www.w3.org/1999/xlink" xmlns:sketch="http://www.bohemiancoding.com/sketch/ns">
    <!-- Generator: Sketch 3.0.4 (8053) - http://www.bohemiancoding.com/sketch -->
    <title>googleplus L 2</title>
    <desc>Created with Sketch.</desc>
    <defs></defs>
    <g id="Page-2" stroke="none" stroke-width="1" fill="none" fill-rule="evenodd" sketch:type="MSPage">
        <g id="40" sketch:type="MSArtboardGroup" transform="translate(-5.000000, -7.000000)" fill="#FFFFFF">
            <g id="googleplus-L-2" sketch:type="MSLayerGroup">
                <path d="M17.0096,10.5232 C17.1920009,10.6650674 17.4047988,10.8525322 17.648,11.0856 C17.8912012,11.3186678 18.1242656,11.6023983 18.3472,11.9368 C18.5701344,12.2712017 18.7626659,12.6613311 18.9248,13.1072 C19.0869341,13.5530689 19.168,14.0597305 19.168,14.6272 C19.168,15.1946695 19.0970674,15.6911979 18.9552,16.1168 C18.8133326,16.5424021 18.6208012,16.9223983 18.3776,17.2568 C18.1343988,17.5912017 17.8608015,17.8951986 17.5568,18.1688 C17.2527985,18.4424014 16.9386683,18.7007988 16.6144,18.944 C16.4117323,19.1466677 16.2192009,19.3594656 16.0368,19.5824 C15.8543991,19.8053344 15.7632,20.0890649 15.7632,20.4336 C15.7632,20.7781351 15.8543991,21.0466657 16.0368,21.2392 C16.2192009,21.4317343 16.3914659,21.5989326 16.5536,21.7408 L17.648,22.592 C17.9722683,22.8757348 18.2914651,23.1594652 18.6056,23.4432 C18.9197349,23.7269348 19.1933322,24.0309317 19.4264,24.3552 C19.6594678,24.6794683 19.8469326,25.0442646 19.9888,25.4496 C20.1306674,25.8549354 20.2016,26.321064 20.2016,26.848 C20.2016,27.5573369 20.0293351,28.2565299 19.6848,28.9456 C19.3402649,29.6346701 18.8336033,30.2477306 18.1648,30.7848 C17.4959967,31.3218694 16.660005,31.7575983 15.6568,32.092 C14.653595,32.4264017 13.5034732,32.5936 12.2064,32.5936 C11.1119945,32.5936 10.1544041,32.4720012 9.3336,32.2288 C8.5127959,31.9855988 7.82880274,31.6613354 7.2816,31.256 C6.73439726,30.8506646 6.32906798,30.3896026 6.0656,29.8728 C5.80213202,29.3559974 5.6704,28.8138695 5.6704,28.2464 C5.6704,27.6991973 5.83759833,27.0760035 6.172,26.3768 C6.50640167,25.6775965 7.11946221,25.064536 8.0112,24.5376 C8.47733566,24.2538652 8.97893065,24.0258675 9.516,23.8536 C10.0530694,23.6813325 10.585064,23.5445338 11.112,23.4432 C11.638936,23.3418662 12.1354643,23.2709335 12.6016,23.2304 C13.0677357,23.1898665 13.4730649,23.1594668 13.8176,23.1392 C13.5946656,22.8554652 13.3869343,22.5565349 13.1944,22.2424 C13.0018657,21.9282651 12.9056,21.5381357 12.9056,21.072 C12.9056,20.808532 12.9359997,20.5906675 12.9968,20.4184 C13.0576003,20.2461325 13.1285329,20.0688009 13.2096,19.8864 C13.0474659,19.9066668 12.8853341,19.9218666 12.7232,19.932 C12.5610659,19.9421334 12.3989341,19.9472 12.2368,19.9472 C11.4261293,19.9472 10.7066698,19.8104014 10.0784,19.5368 C9.45013019,19.2631986 8.92320213,18.9034689 8.4976,18.4576 C8.07199787,18.0117311 7.74773445,17.5000029 7.5248,16.9224 C7.30186555,16.3447971 7.1904,15.7621363 7.1904,15.1744 C7.1904,14.4650631 7.35253171,13.7506703 7.6768,13.0312 C8.00106829,12.3117297 8.48746342,11.6682695 9.136,11.1008 C10.007471,10.3914631 10.9245285,9.93546768 11.8872,9.7328 C12.8498715,9.53013232 13.7466625,9.4288 14.5776,9.4288 L20.84,9.4288 L18.8944,10.5232 L17.0096,10.5232 Z M13.6656,19.096 C14.0506686,19.096 14.4306648,19.0149341 14.8056,18.8528 C15.1805352,18.6906659 15.4895988,18.4880012 15.7328,18.2448 C16.0773351,17.9002649 16.2901329,17.5152021 16.3712,17.0896 C16.4522671,16.6639979 16.4928,16.3093348 16.4928,16.0256 C16.4928,15.4783973 16.4117341,14.8805366 16.2496,14.232 C16.0874659,13.5834634 15.8442683,12.9754695 15.52,12.408 C15.1957317,11.8405305 14.795469,11.3693352 14.3192,10.9944 C13.842931,10.6194648 13.2906698,10.432 12.6624,10.432 C12.2570646,10.432 11.8618686,10.5231991 11.4768,10.7056 C11.0917314,10.8880009 10.7776012,11.1311985 10.5344,11.4352 C10.270932,11.7594683 10.0936005,12.1141314 10.0024,12.4992 C9.91119954,12.8842686 9.8656,13.2794646 9.8656,13.6848 C9.8656,14.1914692 9.94159924,14.7589302 10.0936,15.3872 C10.2456008,16.0154698 10.4786651,16.6031973 10.7928,17.1504 C11.1069349,17.6976027 11.502131,18.1586648 11.9784,18.5336 C12.454669,18.9085352 13.0170634,19.096 13.6656,19.096 Z M18.1648,28.0336 C18.1648,27.6485314 18.098934,27.2989349 17.9672,26.9848 C17.835466,26.6706651 17.637868,26.3616015 17.3744,26.0576 C17.110932,25.7535985 16.7664021,25.4394683 16.3408,25.1152 C15.9151979,24.7909317 15.4186695,24.4261354 14.8512,24.0208 C14.7295994,24.0005332 14.6232005,23.9904 14.532,23.9904 L14.152,23.9904 C14.0911997,23.9904 13.9493344,23.9954666 13.7264,24.0056 C13.5034656,24.0157334 13.2400015,24.0359998 12.936,24.0664 C12.6319985,24.0968002 12.3077351,24.1474663 11.9632,24.2184 C11.6186649,24.2893337 11.2842683,24.3754662 10.96,24.4768 C10.7978659,24.5376003 10.5698681,24.633866 10.276,24.7656 C9.98213186,24.897334 9.69333475,25.0847988 9.4096,25.328 C9.12586525,25.5712012 8.87760106,25.8751982 8.6648,26.24 C8.45199894,26.6048018 8.3456,27.0607973 8.3456,27.608 C8.3456,28.7024055 8.82692852,29.5941299 9.7896,30.2832 C10.7522715,30.9722701 12.0543918,31.3168 13.696,31.3168 C15.1552073,31.3168 16.2647962,31.0077364 17.0248,30.3896 C17.7848038,29.7714636 18.1648,28.9861381 18.1648,28.0336 Z M35.2192,15.2352 L29.4736,15.2352 L29.4736,21.0112 L27.6496,21.0112 L27.6496,15.2352 L21.8736,15.2352 L21.8736,13.4112 L27.6496,13.4112 L27.6496,7.7264 L29.4736,7.7264 L29.4736,13.4112 L35.2192,13.4112 L35.2192,15.2352 Z" id="googleplus-L" sketch:type="MSShapeGroup"></path>
            </g>
        </g>
    </g>
</svg>