<?xml version="1.0" encoding="UTF-8" standalone="no"?>
<svg width="25px" height="22px" viewBox="0 0 25 22" version="1.1" xmlns="http://www.w3.org/2000/svg" xmlns:xlink="http://www.w3.org/1999/xlink" xmlns:sketch="http://www.bohemiancoding.com/sketch/ns">
    <!-- Generator: Sketch 3.0.4 (8053) - http://www.bohemiancoding.com/sketch -->
    <title>twitter L 2</title>
    <desc>Created with Sketch.</desc>
    <defs></defs>
    <g id="Page-2" stroke="none" stroke-width="1" fill="none" fill-rule="evenodd" sketch:type="MSPage">
        <g id="40" sketch:type="MSArtboardGroup" transform="translate(-7.000000, -9.000000)" fill="#FFFFFF">
            <g id="twitter-L-2" sketch:type="MSLayerGroup">
                <path d="M12.5208979,14.8775252 C16.3662305,16.8188582 19.6159799,16.7068582 19.6159799,16.7068582 C19.6159799,16.7068582 18.3839799,12.4135254 22.1919794,10.509526 C25.9999787,8.60552638 28.6204294,11.8156081 28.6204294,11.8156081 C28.6204294,11.8156081 29.2845608,11.6332976 29.7794038,11.450987 C30.2742469,11.2686764 30.990467,10.9431218 30.990467,10.9431218 L29.8170479,13.0376087 L31.6239356,12.8460783 C31.6239356,12.8460783 31.4012318,13.1716977 30.6780853,13.8349217 C29.9549389,14.4981457 29.6568947,14.8407752 29.6568947,14.8407752 C29.6568947,14.8407752 29.915222,20.0086548 27.1928952,23.9874402 C24.4705679,27.9662254 20.953162,30.3541888 15.8435639,30.8567723 C10.7339659,31.3593557 7.40623218,29.2887725 7.40623218,29.2887725 C7.40623218,29.2887725 9.6409119,29.1612382 11.0648982,28.6167727 C12.4888845,28.0723073 14.5368975,26.6381064 14.5368975,26.6381064 C14.5368975,26.6381064 11.624898,25.7421066 10.5795649,24.7341067 C9.53423178,23.7261069 9.2728985,23.1287737 9.2728985,23.1287737 L12.1475646,23.0914404 C12.1475646,23.0914404 9.12356519,21.4861073 8.26489869,20.2167742 C7.40623209,18.9474412 7.2942322,17.7154414 7.2942322,17.7154414 L9.50430155,18.6079082 C9.50430155,18.6079082 7.66756559,16.1101083 7.40623218,14.1687753 C7.14489889,12.2274424 7.74223212,11.1821092 7.74223212,11.1821092 C7.74223212,11.1821092 8.67556529,12.9361922 12.5208979,14.8775252 Z" id="twitter-L" sketch:type="MSShapeGroup"></path>
            </g>
        </g>
    </g>
</svg>